<?xml version="1.0" standalone="no"?>
<!DOCTYPE svg PUBLIC "-//W3C//DTD SVG 20010904//EN"
 "http://www.w3.org/TR/2001/REC-SVG-20010904/DTD/svg10.dtd">
<svg version="1.0" xmlns="http://www.w3.org/2000/svg"
 width="1280.000000pt" height="1271.000000pt" viewBox="0 0 1280.000000 1271.000000"
 preserveAspectRatio="xMidYMid meet">

<g transform="translate(0.000000,1271.000000) scale(0.100000,-0.100000)"
fill="#000000" stroke="none">
<path d="M3774 11699 c-4 -7 -9 -42 -12 -80 -4 -60 -1 -75 26 -133 17 -36 44
-85 60 -108 72 -106 86 -146 87 -248 0 -116 -14 -151 -136 -332 -153 -230
-281 -389 -580 -724 -313 -350 -378 -423 -476 -539 -136 -163 -314 -401 -393
-526 -84 -135 -206 -375 -263 -514 -127 -316 -195 -607 -229 -985 -20 -228
-17 -932 5 -1145 96 -908 326 -1503 851 -2195 220 -290 585 -719 762 -895 283
-282 583 -496 917 -655 329 -156 544 -217 1307 -370 209 -42 322 -69 358 -87
59 -28 105 -82 124 -145 6 -21 14 -38 18 -38 15 0 96 71 113 99 45 77 27 197
-40 266 -103 106 -549 225 -843 225 -38 0 -71 4 -74 8 -2 4 13 39 35 76 22 38
36 72 32 76 -4 4 -143 66 -308 139 -796 353 -1095 558 -1284 878 -62 106 -245
557 -464 1143 -215 574 -306 809 -344 883 -76 153 -191 290 -277 331 -20 9
-61 22 -90 28 -109 23 -247 -41 -295 -138 -39 -77 -39 -167 -1 -354 65 -323
167 -691 230 -832 60 -132 61 -142 18 -133 -45 10 -66 25 -77 55 -10 26 -183
409 -246 545 -148 318 -249 658 -308 1045 -19 128 -22 185 -22 485 0 276 3
364 18 465 108 747 381 1424 800 1985 127 170 238 297 407 465 237 238 463
423 745 610 61 40 134 94 163 119 106 89 249 293 293 418 30 83 30 192 1 258
-43 95 -134 167 -284 228 -47 19 -106 49 -131 66 -57 39 -97 114 -97 182 0 36
-6 55 -26 78 -26 32 -57 40 -70 20z m-1030 -5788 c52 -26 79 -65 169 -246 107
-216 149 -345 282 -870 123 -486 178 -650 295 -880 277 -549 737 -938 1375
-1164 267 -95 320 -118 317 -138 -2 -10 -7 -21 -11 -26 -4 -4 -66 2 -139 13
-366 56 -827 275 -1179 559 -317 256 -575 566 -808 971 -198 345 -312 625
-415 1016 -23 88 -68 260 -101 383 -32 123 -59 244 -59 268 0 60 26 112 64
129 44 21 152 12 210 -15z"/>
<path d="M5976 11655 c7 -74 89 -490 142 -720 57 -245 67 -320 67 -500 -1
-357 -102 -665 -330 -1010 -140 -212 -217 -384 -258 -575 -26 -121 -28 -322
-5 -470 45 -280 62 -442 62 -570 1 -133 0 -136 -32 -197 -21 -42 -65 -95 -135
-165 -203 -204 -290 -392 -303 -653 -14 -263 51 -512 185 -715 53 -80 168
-198 258 -262 70 -50 206 -128 225 -128 4 0 -17 46 -47 103 -30 56 -68 145
-86 197 -29 85 -32 107 -33 215 0 109 2 126 27 186 55 130 179 246 320 298 77
29 229 39 319 22 158 -31 315 -150 390 -296 37 -73 44 -95 58 -182 23 -137
-45 -297 -227 -535 -66 -86 -61 -89 72 -46 315 102 587 371 697 688 82 236 79
518 -7 747 -172 456 -662 762 -1139 712 -58 -6 -115 -8 -128 -5 -22 6 -189
197 -244 279 -42 62 -61 115 -85 237 -20 99 -23 146 -23 340 0 217 1 228 28
315 31 104 82 203 151 295 91 123 245 466 304 679 58 209 65 260 65 486 1 230
-6 276 -78 524 -19 64 -55 195 -81 291 -88 327 -107 395 -120 435 l-14 40 5
-60z m-45 -3823 c43 -49 86 -145 98 -217 8 -52 7 -64 -11 -92 -62 -102 -151
-95 -226 16 -62 92 -79 189 -43 259 20 39 56 76 81 84 26 8 68 -13 101 -50z"/>
<path d="M7966 11355 c-42 -63 -76 -121 -76 -127 0 -7 23 -53 51 -103 79 -139
82 -144 81 -191 -2 -62 -23 -101 -108 -199 -153 -174 -157 -203 -55 -354 l41
-60 -56 -118 c-30 -65 -56 -122 -57 -127 -1 -5 36 -19 82 -30 47 -12 86 -27
89 -34 2 -7 -4 -42 -14 -78 -9 -35 -15 -67 -12 -70 3 -2 28 4 56 15 28 11 53
17 56 13 2 -4 1 -47 -3 -95 -6 -80 -5 -90 12 -98 10 -6 25 -9 33 -7 17 3 115
206 196 408 60 146 99 213 157 261 50 44 98 59 182 59 200 0 514 -180 855
-491 265 -241 708 -759 886 -1034 226 -351 374 -735 436 -1130 41 -263 45
-306 49 -616 4 -274 2 -345 -17 -530 -45 -455 -123 -863 -204 -1083 -30 -79
-58 -152 -63 -160 -7 -13 -22 -5 -88 44 -111 83 -201 115 -320 115 -268 -1
-374 -163 -745 -1135 -172 -450 -317 -693 -542 -904 -163 -154 -239 -197
-1063 -606 -791 -392 -839 -415 -970 -451 -96 -26 -177 -65 -227 -111 -88 -78
-153 -249 -146 -383 9 -178 147 -322 323 -333 66 -4 76 -2 144 32 53 27 71 42
69 54 -2 10 -14 18 -28 20 -131 13 -180 48 -180 129 0 69 48 160 126 238 104
104 232 159 734 315 652 203 1100 405 1500 678 537 366 982 905 1311 1587 260
540 350 835 479 1580 17 99 47 263 67 365 83 437 49 840 -122 1450 -155 552
-602 1290 -1066 1760 -301 304 -604 509 -1014 684 -152 65 -262 131 -356 212
-41 35 -89 71 -108 80 -46 22 -103 13 -156 -25 -24 -17 -46 -31 -49 -31 -2 0
-2 15 0 33 3 17 8 79 12 137 l7 105 103 3 c83 2 103 5 99 16 -7 18 -296 424
-306 431 -5 2 -43 -47 -85 -110z m2332 -6000 c54 -16 141 -78 169 -121 25 -39
20 -101 -17 -190 -426 -1028 -627 -1302 -1333 -1817 -356 -259 -802 -517 -977
-564 -74 -20 -342 -25 -373 -7 -15 9 30 37 265 169 156 87 351 197 433 245 83
48 179 103 215 123 338 186 558 473 770 1002 116 289 317 759 364 853 43 83
126 193 187 244 84 71 192 94 297 63z"/>
<path d="M9481 10825 c-19 -70 -14 -193 13 -272 53 -155 145 -252 333 -350
227 -118 360 -270 424 -485 l19 -63 -4 135 c-7 211 -52 344 -154 460 -39 45
-83 70 -294 169 -147 70 -234 176 -297 364 l-28 82 -12 -40z"/>
<path d="M9126 9210 c-53 -14 -107 -46 -131 -78 -17 -22 -20 -42 -19 -112 1
-78 8 -105 84 -335 66 -203 83 -265 87 -330 5 -69 2 -87 -15 -122 -22 -42 -59
-75 -106 -93 -43 -16 -20 -30 50 -30 75 0 112 16 147 62 47 63 52 97 52 348 0
160 4 248 13 277 16 53 56 102 99 119 75 32 249 6 382 -56 167 -79 305 -204
702 -637 62 -68 67 -71 87 -57 20 14 20 15 -42 127 -86 157 -140 238 -228 342
-78 93 -86 101 -202 199 -163 138 -375 252 -646 347 -94 33 -242 47 -314 29z"/>
<path d="M3270 8623 c-201 -34 -437 -169 -567 -324 -100 -119 -153 -259 -218
-574 -15 -71 -33 -152 -40 -180 -7 -27 -28 -121 -45 -208 -59 -295 -119 -397
-277 -469 l-63 -28 14 -28 c8 -16 33 -45 55 -65 82 -74 152 -43 244 111 26 43
59 110 72 148 29 85 90 341 145 614 50 249 71 322 121 423 92 184 224 306 414
383 209 84 381 66 517 -55 67 -60 171 -193 212 -270 113 -219 93 -396 -79
-670 -96 -152 -314 -459 -348 -487 -15 -13 -54 -31 -85 -40 -54 -16 -63 -16
-250 11 -106 15 -195 26 -196 24 -9 -10 -38 -226 -43 -319 l-5 -105 45 -125
c60 -165 118 -313 412 -1055 126 -315 180 -478 255 -755 68 -255 120 -421 156
-495 34 -73 188 -295 204 -295 20 0 80 35 80 46 0 7 -15 70 -34 141 -36 135
-68 218 -236 623 -56 135 -117 286 -137 335 -112 286 -354 892 -410 1025 -69
165 -78 185 -143 325 -76 163 -93 220 -94 320 -1 106 24 191 53 179 59 -24
146 -46 207 -51 140 -11 227 38 403 228 183 197 318 408 381 597 62 186 62
347 -1 536 -113 340 -436 577 -719 529z"/>
<path d="M9720 7884 c-185 -55 -306 -165 -399 -366 -88 -186 -122 -394 -103
-609 13 -136 32 -224 112 -503 69 -243 154 -315 409 -346 46 -5 86 -12 89 -15
10 -10 -21 -122 -59 -208 -158 -365 -472 -585 -971 -681 -169 -33 -269 -99
-308 -204 -20 -52 -21 -73 -18 -225 2 -113 0 -167 -8 -167 -45 0 -364 50 -549
85 -114 22 -371 30 -491 16 -304 -37 -551 -164 -709 -363 -82 -104 -141 -224
-203 -413 -73 -220 -145 -390 -325 -765 -120 -251 -136 -299 -108 -324 17 -15
22 -13 85 36 63 48 71 59 123 167 138 288 247 546 320 756 105 302 236 483
437 605 170 103 325 147 561 156 189 8 326 -6 504 -53 75 -19 173 -44 218 -55
192 -47 262 18 284 264 20 228 70 286 293 337 71 17 226 76 344 131 266 126
451 297 559 515 51 102 227 565 218 573 -2 3 -49 -3 -103 -12 -134 -22 -275
-21 -327 3 -48 21 -101 79 -127 137 -30 70 -105 342 -123 453 -22 133 -17 433
10 526 62 220 223 372 459 434 230 60 413 -9 598 -226 183 -216 252 -472 203
-756 -9 -48 -45 -174 -80 -280 -80 -241 -99 -374 -78 -545 5 -49 10 -56 46
-79 l41 -26 19 24 c14 17 17 33 13 59 -29 182 -17 274 75 557 72 224 93 340
85 483 -9 173 -46 310 -129 475 -119 239 -254 368 -450 430 -68 22 -96 25
-215 24 -116 0 -150 -4 -222 -25z"/>
<path d="M7888 4360 c-98 -17 -218 -112 -270 -214 -11 -22 -37 -56 -56 -75
-31 -29 -37 -42 -44 -99 -4 -36 -11 -69 -16 -74 -4 -4 -24 -2 -45 4 -28 9 -50
8 -94 -2 -32 -8 -96 -14 -143 -15 -69 -1 -101 -8 -169 -33 -47 -18 -92 -32
-100 -32 -9 0 -38 16 -65 35 -51 36 -91 44 -127 25 -26 -15 -24 -39 12 -150
34 -104 57 -137 98 -142 25 -3 26 -6 34 -82 9 -97 52 -185 132 -274 64 -70
120 -98 235 -114 128 -18 288 14 399 79 76 44 136 109 227 242 l86 126 89 43
c102 48 191 129 231 209 20 41 23 63 23 153 0 100 -2 108 -33 166 -88 162
-247 250 -404 224z m184 -83 c24 -14 73 -53 110 -87 61 -56 70 -68 89 -131 60
-198 -66 -374 -288 -404 -62 -8 -84 -29 -113 -108 -30 -81 -97 -175 -156 -219
-112 -85 -257 -134 -374 -125 -154 12 -269 79 -324 189 -51 103 -26 168 88
228 122 64 108 90 -36 65 -113 -20 -138 -14 -122 29 8 20 241 96 295 96 75 0
110 -35 95 -94 -5 -22 -28 -53 -115 -156 -72 -85 -21 -108 77 -35 34 25 64 45
66 45 1 0 6 -39 10 -87 7 -98 25 -137 74 -166 40 -24 82 -18 140 20 45 29 62
60 42 73 -7 4 -40 13 -73 20 -43 8 -68 20 -90 41 l-29 30 7 135 c6 117 5 138
-10 160 -20 31 -8 49 25 39 34 -11 64 -87 56 -144 -20 -136 -20 -146 7 -176
23 -27 32 -30 98 -33 82 -4 118 11 105 43 -5 14 -14 17 -48 12 -79 -11 -139
37 -124 97 7 29 41 35 75 14 16 -10 24 -7 51 15 25 22 42 27 84 27 61 0 104
23 85 46 -6 8 -29 14 -51 14 -53 0 -112 32 -175 93 -44 43 -53 57 -53 87 0 35
32 100 49 100 5 0 26 33 45 74 42 87 111 154 189 186 71 28 159 22 219 -13z"/>
<path d="M7962 4174 c75 -73 102 -129 106 -219 4 -80 -8 -118 -63 -189 -19
-25 -35 -51 -35 -56 0 -20 42 -10 85 20 74 51 111 116 130 227 9 55 -19 117
-78 177 -51 51 -133 96 -174 96 -27 0 -26 -2 29 -56z"/>
<path d="M7695 4040 c-16 -18 -17 -23 -5 -46 26 -47 70 -55 70 -12 0 21 -30
78 -41 78 -3 0 -14 -9 -24 -20z"/>
</g>
</svg>
